<svg width="584" height="584" viewBox="0 0 584 584" fill="none" xmlns="http://www.w3.org/2000/svg">
<path fill-rule="evenodd" clip-rule="evenodd" d="M300.476 3.41235e-05C357.225 -0.00109503 403.446 -0.00200653 439.904 4.89964C477.951 10.0149 510.709 21.0548 536.827 47.1727C562.945 73.2906 573.985 106.049 579.1 144.096C584.002 180.554 584.001 226.775 584 283.523V300.477C584.001 357.226 584.002 403.446 579.1 439.904C573.985 477.951 562.945 510.709 536.827 536.827C510.709 562.945 477.951 573.985 439.904 579.1C403.446 584.002 357.226 584.001 300.477 584H283.523C226.775 584.001 180.554 584.002 144.096 579.1C106.049 573.985 73.2906 562.945 47.1727 536.827C21.0548 510.709 10.0149 477.951 4.89964 439.904C-0.00200653 403.446 -0.00109503 357.225 3.41235e-05 300.476V283.524C-0.00109503 226.775 -0.00200653 180.554 4.89964 144.096C10.0149 106.049 21.0548 73.2906 47.1727 47.1727C73.2906 21.0548 106.049 10.0149 144.096 4.89964C180.554 -0.00200653 226.775 -0.00109503 283.524 3.41235e-05H300.476ZM72.6285 72.6285C36.0001 109.257 36.0001 168.21 36.0001 286.115V297.885C36.0001 415.79 36.0001 474.743 72.6285 511.372C109.257 548 168.21 548 286.115 548H297.885C415.79 548 474.743 548 511.372 511.372C548 474.743 548 415.79 548 297.885V286.115C548 168.21 548 109.257 511.372 72.6285C474.743 36.0001 415.79 36.0001 297.885 36.0001H286.115C168.21 36.0001 109.257 36.0001 72.6285 72.6285Z" fill="black"/>
<path d="M0 250.115C0 132.21 0 73.257 36.6285 36.6285C73.257 0 132.21 0 250.115 0H261.885C379.79 0 438.743 0 475.371 36.6285C512 73.257 512 132.21 512 250.115V261.885C512 379.79 512 438.743 475.371 475.371C438.743 512 379.79 512 261.885 512H250.115C132.21 512 73.257 512 36.6285 475.371C0 438.743 0 379.79 0 261.885V250.115Z" fill="#D9D9D9"/>

</svg>
