<svg width="12" height="16" viewBox="0 0 12 16" fill="none" xmlns="http://www.w3.org/2000/svg">
<path d="M8.34318 0.585786C7.96811 0.210713 7.4594 0 6.92897 0H2C0.895431 0 0 0.895431 0 2V14C0 15.1046 0.895431 16 2 16H10C11.1046 16 12 15.1046 12 14V5.07103C12 4.5406 11.7893 4.03189 11.4142 3.65682L8.34318 0.585786Z" fill="#C2BEEA"/>
<path d="M7.78076 0.19043C7.98779 0.287598 8.17822 0.420898 8.34326 0.585938L11.4141 3.65674C11.7725 4.01514 11.9819 4.49561 12 5H8C7.44772 5 7 4.55228 7 4V0C7.27246 0.00976562 7.53809 0.0761719 7.78076 0.19043Z" fill="#7B6FC5"/>
<path d="M6.75 7.34998C6.75 7.03886 6.34607 6.88295 6.10986 7.10299L4.5 8.60267H3.75C3.33582 8.60267 3 8.9155 3 9.30133V10.6987C3 11.0845 3.33582 11.3973 3.75 11.3973H4.5L6.10986 12.897C6.34607 13.117 6.75 12.9611 6.75 12.65V7.34998Z" fill="#7B6FC5"/>
<path fill-rule="evenodd" clip-rule="evenodd" d="M7.62101 7.84157C7.46215 7.98 7.46419 8.21629 7.60151 8.37401C7.76092 8.5571 7.89309 8.75766 7.99441 8.97097C8.14937 9.29719 8.22913 9.64684 8.22913 9.99995C8.22913 10.3531 8.14937 10.7027 7.99441 11.0289C7.89307 11.2423 7.76087 11.4429 7.60143 11.626C7.46413 11.7837 7.46205 12.0199 7.62082 12.1583C7.76223 12.2817 7.98162 12.2829 8.11038 12.1477C8.24229 12.0093 8.36116 11.8619 8.4659 11.707C8.5571 11.5721 8.63758 11.4315 8.70661 11.2862C8.9003 10.8784 9 10.4413 9 9.99995C9 9.55857 8.9003 9.12151 8.70661 8.71372C8.63758 8.56841 8.5571 8.42783 8.4659 8.29294C8.36119 8.13807 8.24235 7.99069 8.11049 7.85227C7.98176 7.71714 7.76244 7.71833 7.62101 7.84157Z" fill="#7B6FC5"/>
</svg>
