<svg width="12" height="16" viewBox="0 0 12 16" fill="none" xmlns="http://www.w3.org/2000/svg">
<path d="M8.34318 0.585786C7.96811 0.210713 7.4594 0 6.92897 0H2C0.895431 0 0 0.895431 0 2V14C0 15.1046 0.895431 16 2 16H10C11.1046 16 12 15.1046 12 14V5.07103C12 4.5406 11.7893 4.03189 11.4142 3.65682L8.34318 0.585786Z" fill="#C2BEEA"/>
<path d="M7.78076 0.19043C7.98779 0.287598 8.17822 0.420898 8.34326 0.585938L11.4141 3.65674C11.7725 4.01514 11.9819 4.49561 12 5H8C7.44772 5 7 4.55228 7 4V0C7.27246 0.00976562 7.53809 0.0761719 7.78076 0.19043Z" fill="#7B6FC5"/>
<rect x="3" y="7" width="6" height="1" rx="0.5" fill="#7B6FC5"/>
<rect x="3" y="9" width="6" height="1" rx="0.5" fill="#7B6FC5"/>
<rect x="3" y="11" width="6" height="1" rx="0.5" fill="#7B6FC5"/>
</svg>
