<svg width="12" height="16" viewBox="0 0 12 16" fill="none" xmlns="http://www.w3.org/2000/svg">
<path d="M8.34318 0.585786C7.96811 0.210713 7.4594 0 6.92897 0H2C0.895431 0 0 0.895431 0 2V14C0 15.1046 0.895431 16 2 16H10C11.1046 16 12 15.1046 12 14V5.07103C12 4.5406 11.7893 4.03189 11.4142 3.65682L8.34318 0.585786Z" fill="#C2BEEA"/>
<path d="M7.78076 0.19043C7.98779 0.287598 8.17822 0.420898 8.34326 0.585938L11.4141 3.65674C11.7725 4.01514 11.9819 4.49561 12 5H8C7.44772 5 7 4.55228 7 4V0C7.27246 0.00976562 7.53809 0.0761719 7.78076 0.19043Z" fill="#7B6FC5"/>
<path d="M3.75 8C3.33582 8 3 8.3582 3 8.8V11.2C3 11.6418 3.33582 12 3.75 12H6.75C7.16418 12 7.5 11.6418 7.5 11.2V10.6668L8.50781 11.5625C8.703 11.7363 9 11.5879 9 11.3168V8.6832C9 8.41172 8.703 8.26367 8.50781 8.43711L7.5 9.33281V8.8C7.5 8.3582 7.16418 8 6.75 8H3.75Z" fill="#7B6FC5"/>
</svg>
