<svg width="512" height="512" viewBox="0 0 512 512" fill="none" xmlns="http://www.w3.org/2000/svg">
<g clip-path="url(#clip0_186_4)">
<path d="M0 512H512V0H0V512Z" fill="#3BA55C"/>
<path d="M325.911 175.257L265.545 195.491C255.391 192.35 243.935 190.668 231 190.919C218.066 190.668 206.608 192.35 196.455 195.491L136.089 175.257C125.538 173.357 116.299 182.284 118.266 192.48L134.388 255.866C125.516 277.05 122.54 298.426 122.54 311.358C122.54 344.579 137.017 386 231 386C324.984 386 339.46 344.579 339.46 311.358C339.46 298.426 336.484 277.05 327.613 255.866L343.734 192.48C345.7 182.284 336.462 173.357 325.911 175.257Z" fill="#FEFEFE"/>
<path d="M314.545 146.491L374.911 126.257C385.462 124.357 394.7 133.284 392.734 143.48L376.613 206.866C385.484 228.05 388.46 249.426 388.46 262.358C388.46 284.072 382.275 309.289 351.746 324.154C352.262 319.734 352.46 315.434 352.46 311.358C352.46 297.711 349.573 276.477 341.258 254.956L356.427 195.315L356.499 194.941C360.328 175.084 342.438 159.072 323.608 162.463L322.677 162.63L265.247 181.88C254.847 179.107 243.454 177.697 231 177.916C218.546 177.697 207.153 179.106 196.753 181.88L175.195 174.654L167.266 143.48C165.299 133.284 174.538 124.357 185.089 126.257L245.455 146.491C255.608 143.35 267.066 141.668 280 141.919C292.935 141.668 304.391 143.35 314.545 146.491Z" fill="#FEFEFE"/>
</g>
<defs>
<clipPath id="clip0_186_4">
<rect width="512" height="512" fill="white"/>
</clipPath>
</defs>
</svg>
