<svg width="512" height="512" viewBox="0 0 512 512" fill="none" xmlns="http://www.w3.org/2000/svg">
<g filter="url(#filter0_d_14_45)">
<path d="M468.42 20.5746L332.997 65.8367C310.218 58.8105 284.517 55.049 255.499 55.6094C226.484 55.049 200.78 58.8105 178.004 65.8367L42.5803 20.5746C18.9102 16.3251 -1.81518 36.2937 2.5967 59.1025L38.7636 200.894C18.861 248.282 12.1849 296.099 12.1849 325.027C12.1849 399.343 44.6613 492 255.499 492C466.339 492 498.815 399.343 498.815 325.027C498.815 296.099 492.139 248.282 472.237 200.894L508.404 59.1025C512.814 36.2937 492.09 16.3251 468.42 20.5746Z" fill="white"/>
</g>
<defs>
<filter id="filter0_d_14_45" x="-48" y="-26" width="607" height="572" filterUnits="userSpaceOnUse" color-interpolation-filters="sRGB">
<feFlood flood-opacity="0" result="BackgroundImageFix"/>
<feColorMatrix in="SourceAlpha" type="matrix" values="0 0 0 0 0 0 0 0 0 0 0 0 0 0 0 0 0 0 127 0" result="hardAlpha"/>
<feOffset dy="4"/>
<feGaussianBlur stdDeviation="25"/>
<feComposite in2="hardAlpha" operator="out"/>
<feColorMatrix type="matrix" values="0 0 0 0 0 0 0 0 0 0 0 0 0 0 0 0 0 0 0.1 0"/>
<feBlend mode="normal" in2="BackgroundImageFix" result="effect1_dropShadow_14_45"/>
<feBlend mode="normal" in="SourceGraphic" in2="effect1_dropShadow_14_45" result="shape"/>
</filter>
</defs>
</svg>
