<svg width="512" height="512" viewBox="0 0 512 512" fill="none" xmlns="http://www.w3.org/2000/svg">
<g clip-path="url(#clip0_206_5)">
<path fill-rule="evenodd" clip-rule="evenodd" d="M512 512H0V0H512V512ZM292.338 165.753L356.711 144.273C367.962 142.256 377.813 151.733 375.717 162.557L358.525 229.848C367.985 252.337 371.159 275.03 371.159 288.759C371.159 324.027 355.721 368 255.5 368C155.279 368 139.841 324.027 139.841 288.759C139.841 275.03 143.015 252.337 152.475 229.848L135.284 162.557C133.186 151.733 143.038 142.256 154.29 144.273L218.662 165.753C229.489 162.419 241.707 160.633 255.5 160.899C269.293 160.633 281.51 162.419 292.338 165.753Z" fill="white"/>
</g>
<defs>
<clipPath id="clip0_206_5">
<rect width="512" height="512" fill="white"/>
</clipPath>
</defs>
</svg>
