<svg width="100" height="100" viewBox="0 0 100 100" fill="none" xmlns="http://www.w3.org/2000/svg">
<path d="M54.5696 42.8992V50.1819C54.5696 52.193 56.2924 53.8233 58.4177 53.8233C60.5429 53.8233 62.2658 52.193 62.2658 50.1819V42.8992C62.2658 40.8881 60.5429 39.2578 58.4177 39.2578C56.2924 39.2578 54.5696 40.8881 54.5696 42.8992Z" fill="#7F7F7F"/>
<path d="M37.7341 42.8992V50.1819C37.7341 52.193 39.457 53.8233 41.5822 53.8233C43.7075 53.8233 45.4303 52.193 45.4303 50.1819V42.8992C45.4303 40.8881 43.7075 39.2578 41.5822 39.2578C39.457 39.2578 37.7341 40.8881 37.7341 42.8992Z" fill="#7F7F7F"/>
<path fill-rule="evenodd" clip-rule="evenodd" d="M51.0821 57.0892C52.2755 56.7661 53.1265 55.935 53.1265 55.0464C53.1265 53.9068 51.7267 53.5898 49.9999 53.5898C48.2732 53.5898 46.8734 53.9068 46.8734 55.0464C46.8734 55.935 47.7244 56.7662 48.9179 57.0892V58.8195C48.9179 60.4535 47.5184 61.7781 45.792 61.7781C44.8501 61.7781 44.0055 61.3838 43.4324 60.7602C43.0912 60.3889 42.4545 60.2588 42.0895 60.6087L41.9212 60.77C41.5333 61.1418 41.4517 61.7298 41.8163 62.1226C42.7858 63.1671 44.2075 63.8264 45.792 63.8264C47.5082 63.8264 49.0335 63.0529 50 61.8542C50.9665 63.0529 52.4918 63.8264 54.208 63.8264C55.7925 63.8264 57.2142 63.1671 58.1837 62.1226C58.5483 61.7298 58.4667 61.1418 58.0788 60.7701L57.9104 60.6087C57.5455 60.2589 56.9087 60.3889 56.5676 60.7602C55.9945 61.3839 55.1499 61.7781 54.208 61.7781C52.4816 61.7781 51.0821 60.4535 51.0821 58.8195V57.0892Z" fill="#7F7F7F"/>
<path d="M19.84 19.0857L37.8969 25.8376C41.4543 24.7895 45.4683 24.2284 50.0001 24.312C54.5317 24.2284 58.546 24.7895 62.1031 25.8376L80.16 19.0857C83.8567 18.4518 87.0935 21.4306 86.4044 24.8331L83.849 41.5747C86.9573 48.6437 88 55.7768 88 60.0921C88 71.178 82.928 85 50.0001 85C17.072 85 12 71.178 12 60.0921C12 55.7768 13.0426 48.6437 16.1509 41.5747L13.5956 24.8331C12.9068 21.4306 16.1433 18.4518 19.84 19.0857Z" stroke="#7F7F7F" stroke-width="3" stroke-linecap="round" stroke-dasharray="8 8"/>
</svg>
