<svg width="100" height="100" viewBox="0 0 100 100" fill="none" xmlns="http://www.w3.org/2000/svg">
<path d="M79.8578 19.3429L61.9819 26.042C58.4602 25.0021 54.4864 24.4454 50 24.5283C45.5139 24.4454 41.5399 25.0021 38.0184 26.042L20.1426 19.3429C16.4829 18.7139 13.2786 21.6694 13.9607 25.0453L16.4905 41.6563C13.4133 48.6701 12.3811 55.7475 12.3811 60.0291C12.3811 71.0284 17.4023 84.7425 50 84.7425C82.598 84.7425 87.6192 71.0284 87.6192 60.0291C87.6192 55.7475 86.587 48.6701 83.5099 41.6563L86.0396 25.0453C86.7215 21.6694 83.5174 18.7139 79.8578 19.3429Z" fill="#35F96A"/>
<path fill-rule="evenodd" clip-rule="evenodd" d="M79.2015 17.1602L79.4331 17.1204C84.6142 16.23 89.3592 20.4071 88.3889 25.4141L85.9588 41.3703C88.9721 48.4882 90 55.5946 90 60.0285C90 65.8281 88.6751 72.7385 82.6738 78.1469C76.7137 83.5182 66.5891 87 49.9999 87C33.4108 87 23.2863 83.5181 17.3262 78.1469C11.3249 72.7385 10 65.8281 10 60.0285C10 55.5946 11.0279 48.4882 14.0412 41.3703L11.6111 25.4143C10.6404 20.407 15.3861 16.23 20.5669 17.1204L20.7985 17.1602L38.1274 23.6544C41.6858 22.692 45.6311 22.1925 49.9999 22.2692C54.3689 22.1925 58.314 22.692 61.8725 23.6544L79.2015 17.1602ZM61.9818 26.0415C58.46 25.0015 54.4863 24.4448 49.9999 24.5277C45.5137 24.4448 41.5397 25.0015 38.0182 26.0415L20.1424 19.3423C16.4828 18.7133 13.2784 21.6689 13.9605 25.0448L16.4903 41.6557C13.4132 48.6695 12.381 55.7469 12.381 60.0285C12.381 71.0279 17.4021 84.7419 49.9999 84.7419C82.5979 84.7419 87.619 71.0279 87.619 60.0285C87.619 55.7469 86.5869 48.6695 83.5097 41.6557L86.0395 25.0448C86.7213 21.6689 83.5173 18.7133 79.8576 19.3423L61.9818 26.0415Z" fill="#1D842F"/>
<path d="M50.0001 82.2599C34.2205 82.2599 21.4287 78.0959 21.4287 68.2436C21.4287 58.3913 32.5667 46.582 50.0001 46.582C67.4335 46.582 78.5715 58.3913 78.5715 68.2436C78.5715 78.0959 65.7797 82.2599 50.0001 82.2599Z" fill="#FEFEFE"/>
<path d="M45.4763 42.9684V50.1943C45.4763 52.1897 43.7707 53.8073 41.6668 53.8073C39.5628 53.8073 37.8573 52.1897 37.8573 50.1943V42.9684C37.8573 40.973 39.5628 39.3555 41.6668 39.3555C43.7707 39.3555 45.4763 40.973 45.4763 42.9684Z" fill="#1D842F"/>
<path d="M62.1431 42.9684V50.1943C62.1431 52.1897 60.4375 53.8073 58.3335 53.8073C56.2296 53.8073 54.524 52.1897 54.524 50.1943V42.9684C54.524 40.973 56.2296 39.3555 58.3335 39.3555C60.4375 39.3555 62.1431 40.973 62.1431 42.9684Z" fill="#1D842F"/>
<path fill-rule="evenodd" clip-rule="evenodd" d="M48.9291 57.0502C47.7475 56.7297 46.9049 55.905 46.9049 55.0233C46.9049 53.8926 48.2907 53.5781 50.0001 53.5781C51.7096 53.5781 53.0954 53.8926 53.0954 55.0233C53.0954 55.9049 52.253 56.7296 51.0715 57.0501V58.771C51.0715 60.3923 52.4571 61.7066 54.1662 61.7066C55.0986 61.7066 55.9347 61.3154 56.5021 60.6966C56.8398 60.3282 57.4702 60.1992 57.8315 60.5462L57.9982 60.7063C58.3821 61.0752 58.4629 61.6586 58.102 62.0483C57.1422 63.0847 55.7347 63.7389 54.1662 63.7389C52.4672 63.7389 50.9571 62.9714 50.0003 61.782C49.0435 62.9714 47.5335 63.7389 45.8345 63.7389C44.2659 63.7389 42.8585 63.0847 41.8987 62.0484C41.5377 61.6587 41.6185 61.0752 42.0025 60.7064L42.1692 60.5463C42.5305 60.1992 43.1608 60.3282 43.4986 60.6966C44.0659 61.3154 44.902 61.7066 45.8345 61.7066C47.5436 61.7066 48.9291 60.3923 48.9291 58.771V57.0502Z" fill="#1D842F"/>
</svg>
