<svg width="100" height="100" viewBox="0 0 100 100" fill="none" xmlns="http://www.w3.org/2000/svg">
<path d="M54.5237 40.9684V48.1943C54.5237 50.1897 56.2293 51.8073 58.3332 51.8073C60.4372 51.8073 62.1427 50.1897 62.1427 48.1943V40.9684C62.1427 38.973 60.4372 37.3555 58.3332 37.3555C56.2293 37.3555 54.5237 38.973 54.5237 40.9684Z" fill="#7F7F7F"/>
<path d="M37.8569 40.9684V48.1943C37.8569 50.1897 39.5625 51.8073 41.6665 51.8073C43.7704 51.8073 45.476 50.1897 45.476 48.1943V40.9684C45.476 38.973 43.7704 37.3555 41.6665 37.3555C39.5625 37.3555 37.8569 38.973 37.8569 40.9684Z" fill="#7F7F7F"/>
<path fill-rule="evenodd" clip-rule="evenodd" d="M51.0711 55.0463C52.2528 54.7258 53.0953 53.9011 53.0953 53.0194C53.0953 51.8887 51.7096 51.5742 50.0001 51.5742C48.2906 51.5742 46.9049 51.8887 46.9049 53.0194C46.9049 53.901 47.7473 54.7257 48.9287 55.0462V56.7671C48.9287 58.3884 47.5432 59.7027 45.8341 59.7027C44.9016 59.7027 44.0655 59.3115 43.4981 58.6927C43.1604 58.3243 42.5301 58.1953 42.1688 58.5423L42.0021 58.7024C41.6181 59.0713 41.5373 59.6547 41.8982 60.0444C42.858 61.0808 44.2655 61.7349 45.8341 61.7349C47.5331 61.7349 49.0431 60.9675 49.9999 59.7781C50.9567 60.9675 52.4668 61.7349 54.1658 61.7349C55.7343 61.7349 57.1418 61.0808 58.1016 60.0445C58.4625 59.6548 58.3817 59.0713 57.9977 58.7025L57.8311 58.5424C57.4697 58.1953 56.8394 58.3243 56.5017 58.6927C55.9343 59.3115 55.0982 59.7027 54.1658 59.7027C52.4566 59.7027 51.0711 58.3884 51.0711 56.7671V55.0463Z" fill="#7F7F7F"/>
<path d="M20.1422 17.3429L38.0181 24.042C41.5398 23.0021 45.5136 22.4454 50 22.5283C54.4861 22.4454 58.4601 23.0021 61.9816 24.042L79.8574 17.3429C83.5171 16.7139 86.7214 19.6694 86.0393 23.0453L83.5095 39.6563C86.5867 46.6701 87.6189 53.7475 87.6189 58.0291C87.6189 69.0284 82.5977 82.7425 50 82.7425C17.402 82.7425 12.3808 69.0284 12.3808 58.0291C12.3808 53.7475 13.413 46.6701 16.4901 39.6563L13.9604 23.0453C13.2785 19.6694 16.4826 16.7139 20.1422 17.3429Z" stroke="#7F7F7F" stroke-width="3" stroke-linecap="round" stroke-dasharray="8 8"/>
</svg>
