<svg width="100" height="100" viewBox="0 0 100 100" fill="none" xmlns="http://www.w3.org/2000/svg">
<path d="M20.1422 19.3429L38.0181 26.042C41.5398 25.0021 45.5136 24.4454 50 24.5283C54.4861 24.4454 58.4601 25.0021 61.9816 26.042L79.8574 19.3429C83.5171 18.7139 86.7214 21.6694 86.0393 25.0453L83.5095 41.6563C86.5867 48.6701 87.6189 55.7475 87.6189 60.0291C87.6189 71.0284 82.5977 84.7425 50 84.7425C17.402 84.7425 12.3808 71.0284 12.3808 60.0291C12.3808 55.7475 13.413 48.6701 16.4901 41.6563L13.9604 25.0453C13.2785 21.6694 16.4826 18.7139 20.1422 19.3429Z" fill="#F9A535"/>
<path fill-rule="evenodd" clip-rule="evenodd" d="M20.7985 17.1602L20.5669 17.1204C15.3858 16.23 10.6408 20.4071 11.6111 25.4141L14.0412 41.3703C11.0279 48.4882 10 55.5946 10 60.0285C10 65.8281 11.3249 72.7385 17.3262 78.1469C23.2863 83.5182 33.4109 87 50.0001 87C66.5892 87 76.7137 83.5181 82.6738 78.1469C88.6751 72.7385 90 65.8281 90 60.0285C90 55.5946 88.9721 48.4882 85.9588 41.3703L88.3889 25.4143C89.3596 20.407 84.6139 16.23 79.4331 17.1204L79.2015 17.1602L61.8726 23.6544C58.3142 22.692 54.3689 22.1925 50.0001 22.2692C45.6311 22.1925 41.686 22.692 38.1275 23.6544L20.7985 17.1602ZM38.0182 26.0415C41.54 25.0015 45.5137 24.4448 50.0001 24.5277C54.4863 24.4448 58.4603 25.0015 61.9818 26.0415L79.8576 19.3423C83.5172 18.7133 86.7216 21.6689 86.0395 25.0448L83.5097 41.6557C86.5868 48.6695 87.619 55.7469 87.619 60.0285C87.619 71.0279 82.5979 84.7419 50.0001 84.7419C17.4021 84.7419 12.381 71.0279 12.381 60.0285C12.381 55.7469 13.4131 48.6695 16.4903 41.6557L13.9605 25.0448C13.2787 21.6689 16.4827 18.7133 20.1424 19.3423L38.0182 26.0415Z" fill="#844E1D"/>
<path d="M49.9999 82.2599C65.7795 82.2599 78.5713 78.0959 78.5713 68.2436C78.5713 58.3913 67.4333 46.582 49.9999 46.582C32.5665 46.582 21.4285 58.3913 21.4285 68.2436C21.4285 78.0959 34.2203 82.2599 49.9999 82.2599Z" fill="#FEFEFE"/>
<path d="M54.5237 42.9684V50.1943C54.5237 52.1897 56.2293 53.8073 58.3332 53.8073C60.4372 53.8073 62.1427 52.1897 62.1427 50.1943V42.9684C62.1427 40.973 60.4372 39.3555 58.3332 39.3555C56.2293 39.3555 54.5237 40.973 54.5237 42.9684Z" fill="#844E1D"/>
<path d="M37.8569 42.9684V50.1943C37.8569 52.1897 39.5625 53.8073 41.6665 53.8073C43.7704 53.8073 45.476 52.1897 45.476 50.1943V42.9684C45.476 40.973 43.7704 39.3555 41.6665 39.3555C39.5625 39.3555 37.8569 40.973 37.8569 42.9684Z" fill="#844E1D"/>
<path fill-rule="evenodd" clip-rule="evenodd" d="M51.0711 57.0502C52.2528 56.7297 53.0953 55.905 53.0953 55.0233C53.0953 53.8926 51.7095 53.5781 50.0001 53.5781C48.2906 53.5781 46.9049 53.8926 46.9049 55.0233C46.9049 55.9049 47.7473 56.7296 48.9287 57.0501V58.771C48.9287 60.3923 47.5432 61.7066 45.8341 61.7066C44.9016 61.7066 44.0655 61.3154 43.4981 60.6966C43.1604 60.3282 42.5301 60.1992 42.1688 60.5462L42.0021 60.7064C41.6181 61.0752 41.5373 61.6586 41.8982 62.0483C42.858 63.0847 44.2655 63.7389 45.8341 63.7389C47.5331 63.7389 49.0431 62.9714 49.9999 61.782C50.9567 62.9714 52.4668 63.7389 54.1658 63.7389C55.7343 63.7389 57.1418 63.0847 58.1016 62.0484C58.4625 61.6587 58.3817 61.0752 57.9977 60.7064L57.8311 60.5463C57.4697 60.1992 56.8394 60.3282 56.5017 60.6966C55.9343 61.3154 55.0982 61.7066 54.1658 61.7066C52.4566 61.7066 51.0711 60.3923 51.0711 58.771V57.0502Z" fill="#844E1D"/>
<circle cx="4" cy="4" r="4" transform="matrix(-1 0 0 1 54 51)" fill="#FF3A3A"/>
<circle cx="2" cy="2" r="2" transform="matrix(-1 0 0 1 51 52)" fill="#FF7070"/>
</svg>
