<svg width="100" height="100" viewBox="0 0 100 100" fill="none" xmlns="http://www.w3.org/2000/svg">
<g clip-path="url(#clip0_264_5)">
<path d="M0 100H100V0H0V100Z" fill="#FEFEFE"/>
<path d="M73.1307 25.0618L58.5754 29.9314C56.1272 29.1755 53.3648 28.7708 50.246 28.8311C47.1274 28.7708 44.3648 29.1755 41.9168 29.9314L27.3616 25.0618C24.8175 24.6046 22.5899 26.753 23.0641 29.2069L26.9513 44.4619C24.8122 49.5602 24.0947 54.7048 24.0947 57.8171C24.0947 65.8125 27.5852 75.7813 50.246 75.7813C72.907 75.7813 76.3976 65.8125 76.3976 57.8171C76.3976 54.7048 75.68 49.5602 73.5409 44.4619L77.4281 29.2069C77.9021 26.753 75.6747 24.6046 73.1307 25.0618Z" fill="black"/>
</g>
<defs>
<clipPath id="clip0_264_5">
<rect width="100" height="100" fill="white"/>
</clipPath>
</defs>
</svg>
